<?xml version="1.0" encoding="UTF-8" standalone="no"?>
<svg
   version="1.1"
   id="svg1"
   width="1024"
   height="1024"
   viewBox="0 0 1024 1024"
   xmlns="http://www.w3.org/2000/svg"
   xmlns:svg="http://www.w3.org/2000/svg">
  <defs
     id="defs1" />
  <g
     id="g1">
    <path
       style="fill:#000000"
       d="M 206,931.45601 C 171.86223,925.24511 140.77288,907.03171 119.02071,880.5 103.96799,862.1398 94.810811,843.28488 88.180957,817 L 85.532533,806.5 85.253264,507.51694 c -0.304305,-325.78555 -0.647018,-304.60057 5.256952,-324.96108 5.282028,-18.21568 12.842684,-32.662 25.425374,-48.58084 19.48957,-24.657 50.10354,-44.458671 78.9998,-51.098506 17.03931,-3.915324 10.89651,-3.839923 314.35402,-3.858577 201.90848,-0.01241 294.76469,0.313826 301.44834,1.059097 33.43604,3.728339 63.81612,19.081552 88.35768,44.653416 19.73181,20.56017 31.64677,43.23749 38.15647,72.62179 L 939.5,207.5 V 506 c 0,281.93061 -0.0985,298.98347 -1.77471,307.20981 -10.66015,52.31712 -49.16408,96.03427 -99.25356,112.69194 -22.92248,7.62305 1.22994,7.1087 -329.10007,7.00851 C 264.05419,932.83586 212.21851,932.58738 206,931.45601 Z M 293,773.5 c 0,-70.125 -0.14723,-127.5 -0.32717,-127.5 -1.04014,0 -25.42909,9.32299 -31.01669,11.85653 L 255,660.87457 V 780.93728 901 h 19 19 z m 80,5.4778 V 656.95561 l -3.89674,-7.75024 c -2.14321,-4.26263 -5.11056,-11.64337 -6.59412,-16.40165 l -2.69737,-8.65141 -4.65588,1.42689 c -2.56074,0.78478 -8.59339,2.62012 -13.40589,4.07851 L 333,632.30934 V 766.65467 901 h 20 20 z m 78.9408,5.2722 c -0.0569,-64.2125 -0.40431,-118.45045 -0.77209,-120.52877 l -0.66871,-3.77877 -14,11.14121 c -7.7,6.12767 -16.3625,13.15041 -19.25,15.60609 l -5.25,4.46489 9.5e-4,47.17267 c 5.2e-4,25.94498 0.29924,73.16018 0.66381,104.92268 l 0.66287,57.75 h 19.35828 19.35828 z m 80.24728,12 c -0.2283,-57.6125 -0.55062,-104.8991 -0.71626,-105.08134 -0.16564,-0.18224 -3.60206,1.90164 -7.63649,4.63083 -4.03443,2.72919 -8.32224,5.26299 -9.52846,5.63067 -2.37593,0.72424 -7.14611,-1.37335 -16.07629,-7.06921 C 495.3324,692.51243 492.7449,691 492.48058,691 492.21626,691 492,738.25 492,796 v 105 h 20.30159 20.3016 z M 612,864.35921 v -36.64079 l 4.25,4.85155 c 9.39881,10.72913 17.50531,17.07962 28.55972,22.37322 L 652,858.38638 V 879.69319 901 h 19.97971 19.97971 l 0.27029,-20.65528 0.27029,-20.65528 5.19304,-1.76446 c 9.0466,-3.07381 20.8749,-9.84242 27.19575,-15.56246 L 731,836.83219 V 868.9161 901 H 750.5 770 V 781.02032 661.04065 l -3.75,-1.90469 c -3.43872,-1.74659 -27.73265,-11.02038 -33,-12.59719 L 731,645.86522 v 46.01101 46.011 l -5.17769,-4.96432 c -7.22628,-6.92849 -14.07563,-11.25181 -24.69537,-15.58774 L 692,713.60873 v -40.29094 -40.29095 l -3.25,-1.32776 c -7.27693,-2.97293 -22.83779,-7.0067 -23.61875,-6.12258 -0.44866,0.50793 -2.06291,4.5235 -3.58723,8.9235 -1.52432,4.4 -4.29531,11.2193 -6.15775,15.154 L 652,656.808 v 29.92348 29.92347 l -9.56441,4.74802 c -7.98955,3.96622 -11.28273,6.40306 -20,14.7993 L 612,746.25354 V 718.26599 690.27843 L 593.76512,675.63922 C 583.73593,667.58765 575.03381,661 574.42706,661 572.83141,661 572,713.981 572,815.66339 V 901 h 20 20 z m 50,-10.84198 c -9.31541,-2.09279 -23.3885,-9.4325 -30.70321,-16.01304 -8.46617,-7.61642 -15.27669,-18.10962 -18.86992,-29.07352 -2.61552,-7.98065 -2.91619,-10.2072 -2.82644,-20.93067 0.0843,-10.07532 0.52128,-13.28312 2.72441,-20 8.58022,-26.15934 30.26522,-44.44293 56.51986,-47.6544 30.5722,-3.73959 60.87583,16.74109 70.8388,47.87635 3.1518,9.84969 3.56674,25.31964 0.94623,35.27805 -7.62649,28.98204 -33.33318,50.04044 -62.88735,51.51604 -6.06997,0.30307 -11.47348,-0.0398 -15.74238,-0.99881 z m 24,-14.92782 c 3.39967,-1.22236 8.89546,-7.59307 8.96678,-10.39428 0.0183,-0.71768 -1.74634,-3.92539 -3.92137,-7.12826 l -3.95458,-5.82338 -7.55523,-0.70799 c -12.13418,-1.13706 -14.98786,-0.26995 -19.07242,5.79527 -1.90475,2.82839 -3.46318,6.35151 -3.46318,7.82916 0,3.29111 4.33188,8.63955 8.45042,10.43347 3.82556,1.66631 15.91061,1.66397 20.54958,-0.004 z m -34.06221,-22.25608 c 2.25927,-2.56667 4.37151,-5.71752 4.69387,-7.00189 0.35377,-1.40951 -0.74539,-6.18151 -2.77278,-12.038 l -3.35888,-9.70278 -5.91557,-1.7419 c -3.99073,-1.17511 -6.48386,-1.43777 -7.66206,-0.80721 C 633.74689,786.74101 626,796.4252 626,798.69531 c 0,3.19433 3.71001,12.66631 6.2021,15.83449 3.08981,3.92806 7.77795,6.46219 11.96291,6.46646 3.11175,0.003 4.28512,-0.70073 7.77278,-4.66293 z m 62.52948,3.24479 c 3.82772,-1.59932 8.49037,-8.78353 10.60693,-16.34312 1.16706,-4.16835 1.08236,-4.87592 -1.06919,-8.93163 -1.28516,-2.42256 -3.70944,-5.55977 -5.38728,-6.97157 -2.67187,-2.24824 -3.69593,-2.50033 -8.24836,-2.03047 -2.85876,0.29505 -6.09762,1.01805 -7.19746,1.60667 -2.48096,1.32777 -8.65459,19.11663 -7.76922,22.38641 0.32847,1.21308 2.17661,4.34309 4.10698,6.95559 3.17556,4.29771 3.89277,4.75 7.53216,4.75 2.21233,0 5.55377,-0.63985 7.42544,-1.42188 z M 660,771.33579 c 9.76681,-6.57901 9.68419,-6.48504 10.86544,-12.3599 1.2323,-6.12875 1.10295,-8.10413 -0.67059,-10.24111 C 668.81554,747.07281 654.88586,741 652.45299,741 c -4.14172,0 -15.83081,10.67285 -17.06211,15.57874 -0.89658,3.57228 0.0816,9.68161 2.25897,14.10809 1.52765,3.1057 2.63454,3.96228 6.35015,4.91418 5.9895,1.53444 8.3075,0.91652 16,-4.26522 z m 50.18771,3.64318 c 3.34115,-0.94098 3.83452,-1.54361 5.25,-6.41268 1.9355,-6.6579 1.96889,-9.87934 0.13907,-13.41782 -1.7053,-3.29768 -8.63007,-9.80896 -13.83927,-13.01289 l -3.76249,-2.31414 -7.23751,3.71493 c -3.98063,2.04321 -7.80001,4.16349 -8.48751,4.71172 -0.77598,0.6188 -1.25,3.53238 -1.25,7.68323 0,7.64623 0.26067,8.08321 8.5,14.24946 10.03133,7.50737 10.59987,7.63923 20.68771,4.79819 z M 162.38694,869.75 c 0.33771,-2.3375 2.42329,-22.025 4.63463,-43.75 6.2538,-61.43957 9.84422,-90.86718 12.53617,-102.74819 4.9044,-21.64576 13.54997,-40.20846 25.37985,-54.4925 15.62308,-18.86416 34.14868,-30.07362 72.06241,-43.60349 18.8029,-6.71 84.4841,-28.32652 90.37703,-29.74424 1.71792,-0.4133 3.53089,-1.88252 4.5,-3.64678 5.33761,-9.7171 15.85785,-20.99663 25.12297,-26.93622 5.06736,-3.24853 5.84203,-5.4526 5.94237,-16.90727 0.0575,-6.56793 0.0479,-6.59083 -5.89663,-14 -12.38385,-15.43506 -25.22101,-39.99717 -32.55799,-62.29515 l -4.2463,-12.905 -7.05365,-3.26719 c -14.23877,-6.59527 -23.56475,-20.68214 -29.67416,-44.82278 -5.74368,-22.69546 -5.85759,-43.53903 -0.30254,-55.3569 3.23002,-6.87158 10.08836,-13.79272 16.1622,-16.31018 l 5.35191,-2.21824 -0.48376,-29.62294 c -0.3777,-23.12818 -0.13724,-32.58277 1.09672,-43.12293 4.18671,-35.76154 15.06556,-59.76893 36.13995,-79.75343 23.14251,-21.94566 51.19171,-32.29873 98.49595,-36.35524 15.30926,-1.31282 59.4382,-0.64985 70.52593,1.05954 24.78027,3.82038 44.11932,12.63141 57.84054,26.35263 4.95683,4.95683 7.42594,6.63767 11.25468,7.66156 23.92473,6.39806 41.96682,25.56415 51.8074,55.03494 6.72545,20.14156 9.10447,41.77182 8.317,75.61894 l -0.53787,23.11894 3.81388,1.14266 c 8.61886,2.58228 18.45513,15.25377 20.89567,26.91868 1.53245,7.32458 1.38521,23.11408 -0.30509,32.71848 -5.6527,32.11888 -17.34306,52.06578 -34.24327,58.42827 l -4.84294,1.82324 -4.69515,13.8654 C 652.36315,493.6109 640.64805,515.96743 627.1246,534 l -5.6246,7.5 0.28316,10.08449 0.28315,10.0845 4.16511,2.34092 c 6.03218,3.39027 17.79443,15.38344 23.03781,23.49009 l 4.5276,7 14.35159,4.40191 c 16.53372,5.07122 76.74135,25.18873 90.97264,30.3972 40.32855,14.75972 65.51571,37.38469 78.54373,70.5538 8.0528,20.50227 10.18987,34.68995 20.88275,138.63721 1.97966,19.24457 3.76149,35.15225 3.95964,35.35039 0.6994,0.6994 8.05989,-5.85152 13.42704,-11.95021 15.84488,-18.00453 26.5546,-41.32291 28.98358,-63.10624 1.47655,-13.24177 1.5241,-573.70979 0.0497,-585.81029 -3.12866,-25.67727 -14.42783,-48.47486 -33.4492,-67.4883 C 850.73163,124.70748 828.72827,114.75468 800,113.13554 c -7.425,-0.41848 -141.525,-0.68768 -298,-0.59823 -220.57537,0.12611 -285.95057,0.43932 -290.95582,1.394 -23.06907,4.40005 -43.16231,15.1842 -59.10778,31.72344 C 136.04999,162.13273 127.95531,177.19631 121.65831,202 l -2.15793,8.5 -1.9e-4,245 c -1e-4,134.75 0.24373,268.85 0.54186,298 0.51709,50.56042 0.64274,53.36042 2.72959,60.83017 5.66279,20.26957 14.87501,36.42228 29.04063,50.91983 4.70232,4.8125 8.86713,8.75 9.25515,8.75 0.38802,0 0.9818,-1.9125 1.31952,-4.25 z m 376.90819,-219.5 c 14.56272,-10.8625 30.42919,-22.64158 35.25882,-26.17574 4.82963,-3.53415 11.85575,-9.32616 15.6136,-12.87113 L 597,604.75774 v -19.50703 -19.50703 l -3.25,2.66676 c -11.52211,9.45436 -30.17119,20.15332 -43.43407,24.91808 -20.85983,7.49401 -52.4336,7.64157 -73.82565,0.345 C 461.24281,588.4728 443.56234,578.63437 431.75,568.77745 L 427,564.81376 v 19.5162 19.51619 l 2.82968,2.82693 c 5.30087,5.29571 19.64473,16.99402 31.17032,25.42133 18.33345,13.40511 47.87931,35.9013 48.52598,36.94763 0.32563,0.52688 1.19942,0.95796 1.94176,0.95796 0.74233,0 13.26466,-8.8875 27.82739,-19.75 z m -5.48449,-78.21071 c 21.58864,-5.53751 39.66119,-16.34668 57.74165,-34.53521 23.22775,-23.3666 39.16094,-50.45227 47.65077,-81.00408 4.87644,-17.54853 6.26386,-19.36984 16.05179,-21.07158 2.06517,-0.35905 5.5288,-1.93786 7.69696,-3.50847 C 671.96625,425.38992 680,398.80884 680,375.51299 c 0,-7.80167 -0.22886,-8.83276 -2.45455,-11.05844 -1.35,-1.35 -3.3789,-2.45455 -4.50868,-2.45455 -1.12978,0 -4.74633,2.475 -8.03677,5.5 -4.91249,4.51619 -6.61937,5.5 -9.54234,5.5 -5.40418,0 -6.17462,-2.92498 -7.95134,-30.18718 -2.31947,-35.59036 -5.52421,-51.1172 -14.57671,-70.62362 -2.12127,-4.57094 -5.86145,-11.32094 -8.31151,-15 C 619.82134,249.9863 609.40077,238 607.93551,238 c -0.49317,0 -3.46622,1.64372 -6.60677,3.6527 -28.07257,17.95781 -72.26288,26.60345 -136.82874,26.76994 -26.59101,0.0686 -31.59656,-0.17973 -44.05015,-2.18513 -7.72759,-1.24437 -15.60047,-2.70711 -17.49529,-3.25054 -4.09661,-1.17489 -4.67503,-0.58477 -10.78471,11.00277 -7.80021,14.79379 -12.02674,32.31551 -14.11365,58.51026 -3.05297,38.32091 -3.58456,40.5 -9.88002,40.5 -2.98879,0 -4.48952,-0.7279 -7.22432,-3.50402 -8.12339,-8.24613 -12.94283,-9.15517 -15.54315,-2.93174 -3.57105,8.54673 0.29187,37.65699 7.01414,52.85724 4.27358,9.6633 9.34485,14.0225 19.25415,16.55063 5.58939,1.426 8.7948,5.47733 11.32897,14.31875 10.37526,36.19802 25.30875,62.16438 49.91715,86.796 11.61474,11.6257 17.52244,16.26265 29.57688,23.21488 12.68093,7.31355 25.82291,11.94014 40,14.08187 6.02263,0.90984 23.81857,-0.4226 31.31064,-2.34432 z M 519.28693,548.0435 c -25.73411,-9.36248 -37.00856,-40.41738 -23.65387,-65.15336 3.67206,-6.80152 12.44256,-15.65398 18.9418,-19.11883 C 524.47792,458.49183 528.61217,458 563.08765,458 c 27.94531,0 31.82517,0.19003 33.00925,1.61676 1.9026,2.29249 2.39368,19.65845 0.7126,25.19961 -1.39328,4.59253 -2.29867,5.31073 -12.0595,9.56616 l -5.75,2.50682 -0.0119,6.80533 c -0.0315,18.06325 -9.92737,34.20849 -25.77125,42.04614 -7.18254,3.55306 -8.17818,3.77125 -18.15805,3.97923 -8.27748,0.1725 -11.68517,-0.18974 -15.7719,-1.67655 z m 21.45859,-25.58164 c 4.7503,-1.9848 7.02196,-4.08929 9.36089,-8.67202 4.07182,-7.97803 1.32975,-18.48752 -6.10786,-23.4095 -11.98903,-7.93396 -26.77572,-0.23305 -27.76511,14.46009 -0.33145,4.92231 0.003,6.25644 2.56406,10.24141 5.00598,7.78789 13.85252,10.76254 21.94802,7.38002 z"
       id="path1" />
  </g>
</svg>
